<svg id="SvgjsSvg1000" xmlns="http://www.w3.org/2000/svg" version="1.1" xmlns:xlink="http://www.w3.org/1999/xlink" xmlns:svgjs="http://svgjs.com/svgjs" width="38" height="39" viewBox="0 0 38 39"><title>fa-search</title><desc>Created with Avocode.</desc><defs id="SvgjsDefs1001"></defs><path id="SvgjsPath1007" d="M610.717 2761.7C610.717 2767.21 606.23 2771.7 600.716 2771.7C595.202 2771.7 590.715 2767.21 590.715 2761.7C590.715 2756.18 595.202 2751.7 600.716 2751.7C606.23 2751.7 610.717 2756.18 610.717 2761.7ZM622.146 2780.27C622.146 2779.5099999999998 621.834 2778.77 621.3199999999999 2778.2599999999998L613.6629999999999 2770.6C615.4719999999999 2767.99 616.4319999999999 2764.87 616.4319999999999 2761.7C616.4319999999999 2753.0099999999998 609.3999999999999 2745.98 600.7159999999999 2745.98C592.0319999999999 2745.98 584.9999999999999 2753.01 584.9999999999999 2761.7C584.9999999999999 2770.3799999999997 592.0319999999999 2777.41 600.7159999999999 2777.41C603.8859999999999 2777.41 607.0109999999999 2776.45 609.6229999999999 2774.64L617.28 2782.2799999999997C617.793 2782.81 618.53 2783.1299999999997 619.289 2783.1299999999997C620.852 2783.1299999999997 622.146 2781.8299999999995 622.146 2780.2699999999995Z " fill="#ffffff" fill-opacity="1" transform="matrix(1,0,0,1,-585,-2745)"></path></svg>